<svg xmlns="http://www.w3.org/2000/svg" xmlns:xlink="http://www.w3.org/1999/xlink" width="32" height="32" id="avatar">
  <defs>
    <linearGradient id="a">
      <stop offset="0" stop-color="#000092"></stop>
      <stop offset="1" stop-color="#ff00f3"></stop>
    </linearGradient>
    <linearGradient xlink:href="#a" id="b" x1="4" x2="25" y1="16" y2="16" gradientUnits="userSpaceOnUse"></linearGradient>
  </defs>
  <path fill="url(#b)" fill-rule="evenodd" d="m17.63 1-.028.465c-.015.221-.125.383-.338.533a1.68 1.68 0 0 1-.807.27h-2.635c-1.752 0-3.176 1.435-3.176 3.195v2.394a.33.33 0 0 0 0 .061v3.232c0 1.307.485 2.488 1.258 3.418v2.723l-5.568 3.23A4.622 4.622 0 0 0 4 24.533V31h23.928v-6.578a4.427 4.427 0 0 0-2.237-3.842l-5.546-3.285v-2.871a5.326 5.326 0 0 0 1.136-3.274V7.918c0-.059-.001-.058-.002-.025 0 .025.002.032.002-.032v-3.54l-.004-.034c-.117-.898-.394-1.708-.92-2.316-.525-.609-1.312-.974-2.26-.969V1h-.466zm.65 1.074c.57.044 1.014.195 1.32.549.345.4.58 1.018.681 1.783V7.86c0-.052-.001-.035-.002.026 0 .077.002.073.002.03v.288a2.905 2.905 0 0 0-.894-.328c-.698-.128-1.423-.074-2.121-.045-.699.03-1.366.033-1.914-.117-.549-.15-.982-.42-1.344-1.045a.5.5 0 0 0-.461-.248.5.5 0 0 0-.455.37c.012-.048-.085.158-.252.355a6.73 6.73 0 0 1-.637.642c-.19.168-.378.305-.557.43v-.303c0 .055.002.037.002-.027a.32.32 0 0 0-.002-.032V5.461a2.17 2.17 0 0 1 2.176-2.195h2.701c.455-.03.922-.172 1.317-.45.228-.16.3-.479.44-.742zm-4.641 5.658c.43.456.917.8 1.449.946.742.204 1.506.182 2.22.152.715-.03 1.383-.067 1.899.027.484.089.81.259 1.074.664v1.625c0 2.422-1.919 4.354-4.316 4.354-2.398 0-4.319-1.932-4.319-4.354v-1.75c.131-.059.254-.135.385-.218.277-.175.564-.4.836-.643.273-.242.528-.498.735-.742.016-.02.02-.042.037-.06zm5.506 7.686v1.98l-3.225 2.725-3.016-2.547v-2.06a5.254 5.254 0 0 0 3.06.988 5.249 5.249 0 0 0 3.18-1.086zm.587 2.793 1.09.646-1.758 2.944-.002-.002-.173.297-1.268-.996-.674-.536 2.785-2.353zm-7.543.068 2.704 2.285-.547.44-1.393 1.094-1.89-3.164 1.126-.655zm9.497 1.088 3.502 2.074h.003a3.424 3.424 0 0 1 1.737 2.979v5.578h-2.881v-2.592h-1v2.592h-14v-2.592h-1v2.592H5v-5.467c0-1.299.698-2.499 1.834-3.144h.002l3.361-1.951 2.479 4.15.004-.002 3.25 5.514 3.568-6.069 2.188-3.662zm-5.766 1.656 1.045.832V22a.998.998 0 1 1-2 0v-.21l.002-.003.953-.764zm-1.885 1.497v.001c.072.265.21.502.38.715l-.144 1.078-.798-1.353.562-.441zm3.84.052.5.395-.732 1.246-.13-.973c.16-.2.288-.422.362-.668zm-2.54 1.315c.41.136.847.136 1.257 0l.23 1.722-.892 1.518-.836-1.418.242-1.822z" color="#000" font-family="sans-serif" font-weight="400" overflow="visible" style="line-height:normal;text-indent:0;text-align:start;text-decoration-line:none;text-decoration-style:solid;text-decoration-color:#000;text-transform:none;block-progression:tb;isolation:auto;mix-blend-mode:normal"></path>
</svg>
